<svg width="24" height="24" viewBox="0 0 24 24" fill="none" xmlns="http://www.w3.org/2000/svg">
<path d="M12 3.83398C16.4196 3.83398 20 7.41582 20 11.834" stroke="white" stroke-linecap="round" stroke-linejoin="round"/>
<path d="M12 1.16699C17.8917 1.16699 22.6667 5.94328 22.6667 11.8337" stroke="white" stroke-linecap="round" stroke-linejoin="round"/>
<path d="M5.0127 0.503906C5.16713 0.473262 5.34366 0.581801 5.38672 0.689453L7.80273 6.73047C7.8247 6.78565 7.8367 6.89086 7.80664 7.02344C7.77691 7.15443 7.71697 7.26155 7.65625 7.32227L5.90332 9.0752C5.4323 9.54806 5.29498 10.2498 5.55664 10.8311L5.56348 10.8467L5.57227 10.8623C5.59013 10.8955 5.60348 10.9209 5.61719 10.9473C5.6204 10.9536 5.62362 10.9595 5.62598 10.9639C5.62875 10.969 5.63132 10.9739 5.63281 10.9766C5.6344 10.9795 5.6354 10.9808 5.63574 10.9814L5.6377 10.9863L5.6416 10.9941C6.39142 12.3692 7.47697 13.8151 8.83203 15.1689C10.1869 16.5226 11.6334 17.6094 13.0088 18.3594C13.0158 18.3632 13.0203 18.3659 13.0244 18.3682L13.0303 18.3711L13.04 18.377L13.0488 18.3818C13.0677 18.3921 13.0864 18.4018 13.1006 18.4092C13.1159 18.4172 13.1271 18.423 13.1377 18.4287L13.1533 18.4375L13.1709 18.4453C13.7521 18.7067 14.453 18.5686 14.9258 18.0977L14.9268 18.0967L16.6768 16.3457L16.6777 16.3447C16.7374 16.2849 16.8435 16.2251 16.9746 16.1953C17.1077 16.1651 17.2135 16.1782 17.2686 16.2002L23.3105 18.6143C23.418 18.6572 23.5251 18.8331 23.4951 18.9873V18.9883C23.495 18.9889 23.4944 18.9899 23.4941 18.9912C23.4934 18.9946 23.4928 19.0004 23.4912 19.0078C23.488 19.0229 23.4823 19.0461 23.4756 19.0762C23.462 19.1367 23.4412 19.2258 23.4131 19.3359C23.3568 19.5567 23.2721 19.861 23.1572 20.1943C22.9201 20.8825 22.5824 21.6139 22.1641 22.0322C20.68 23.5162 18.2229 23.881 15.3252 23.1025C12.4423 22.3281 9.22894 20.4418 6.39355 17.6064C3.55816 14.7711 1.67177 11.5577 0.897461 8.6748C0.119221 5.77721 0.4843 3.32 1.96875 1.83594L1.97754 1.82617C2.39717 1.41177 3.12307 1.07804 3.80664 0.842773C4.14 0.728051 4.44422 0.643124 4.66504 0.586914C4.77522 0.558866 4.86432 0.537979 4.9248 0.524414C4.95486 0.517674 4.97808 0.511978 4.99316 0.508789C5.00054 0.507229 5.00636 0.506559 5.00977 0.505859C5.01111 0.505584 5.01204 0.505017 5.0127 0.504883V0.503906Z" stroke="white"/>
</svg>
