<svg width="28" height="20" viewBox="0 0 28 20" fill="none" xmlns="http://www.w3.org/2000/svg">
<g clip-path="url(#clip0_72_1140)">
<path d="M27.1069 0.878013C26.5546 0.335555 25.7925 0 24.9499 0H3.05073C2.20822 0 1.44537 0.335555 0.893818 0.878013C0.341595 1.41981 0 2.16917 0 2.99678V17.0032C0 17.8308 0.341595 18.5802 0.893818 19.122C1.44604 19.6644 2.20822 20 3.05073 20H24.9493C25.8296 20 26.6221 19.6339 27.1791 19.0484C27.6881 18.5132 28 17.7937 28 17.0032V2.99678C28 2.16917 27.6584 1.41981 27.1062 0.878013H27.1069ZM16.5991 10.1608L26.5438 2.07301C26.7106 2.34955 26.7997 2.66653 26.7997 2.99678V17.0032C26.7997 17.2632 26.7437 17.5165 26.6377 17.7479L16.5984 10.1608H16.5991ZM24.9493 1.17908C25.1802 1.17908 25.4043 1.22086 25.6136 1.29978L14.9593 9.96386C14.698 10.1761 14.3814 10.2934 14.0425 10.3027C13.678 10.3127 13.3215 10.1926 13.0407 9.96386L2.38779 1.29911C2.59639 1.22086 2.82052 1.17908 3.05073 1.17908H24.9493ZM1.36233 17.7486C1.25634 17.5172 1.20031 17.2645 1.20031 17.0032V2.99678C1.20031 2.66587 1.2901 2.34888 1.45684 2.07169L11.4043 10.1628L1.36233 17.7486ZM3.05073 18.8216C2.74491 18.8216 2.45057 18.7493 2.18729 18.6127L12.3535 10.9334C12.826 11.2895 13.4039 11.4831 14 11.4831C14.0257 11.4831 14.0506 11.4831 14.0763 11.4818C14.6447 11.4659 15.199 11.2709 15.6492 10.9314L25.8127 18.6127C25.5501 18.7493 25.2564 18.8216 24.9486 18.8216H3.05073Z" fill="white"/>
</g>
<defs>
<clipPath id="clip0_72_1140">
<rect width="28" height="20" fill="white"/>
</clipPath>
</defs>
</svg>
